<?xml version="1.0" standalone="no"?>
<!DOCTYPE svg PUBLIC "-//W3C//DTD SVG 20010904//EN"
 "http://www.w3.org/TR/2001/REC-SVG-20010904/DTD/svg10.dtd">
<svg version="1.0" xmlns="http://www.w3.org/2000/svg"
 width="64.000000pt" height="64.000000pt" viewBox="0 0 64.000000 64.000000"
 preserveAspectRatio="xMidYMid meet">

<g transform="translate(0.000000,64.000000) scale(0.100000,-0.100000)" stroke="none">
<path d="M171 561 c-88 -15 -110 -84 -98 -302 9 -178 17 -184 247 -184 244 0
245 1 245 245 0 237 -4 241 -215 246 -74 1 -155 -1 -179 -5z m169 -140 c0 -64
17 -81 81 -81 42 0 49 -3 49 -20 0 -17 -7 -20 -49 -20 -64 0 -81 -17 -81 -81
0 -42 -3 -49 -20 -49 -17 0 -20 7 -20 49 0 64 -17 81 -81 81 -42 0 -49 3 -49
20 0 17 7 20 49 20 64 0 81 17 81 81 0 42 3 49 20 49 17 0 20 -7 20 -49z"/>
</g>
</svg>
